# xmcd CD database file
# Copyright (C) 1993-1998 Ti Kan
# 
# Track frame offsets:
#     150
#     19820
#     34345
#     55435
#     67132
#     79277
#     89957
#     103055
#     117865
#     143057
#     161320
#     177520
#     192840
# 
# Disc length: 2780 seconds
# 
# Revision: 1
# Processed by: cddbd v1.4b41PL1 Copyright (c) Steve Scherf et al.
# Submitted via: DiscPlay 4.0.4
# 
DISCID=be0ada0d
DTITLE=Jones and Leva - Journey Home
DYEAR=1900
DGENRE=
TTITLE0=She Could Have Loved Him
TTITLE1=Nothin' for Nothin'
TTITLE2=Drunkard's Lantern
TTITLE3=Log Book of Love
TTITLE4=Satan I Won't Be Your Servant No More
TTITLE5=A Sweet Goodbye
TTITLE6=Up On Camp
TTITLE7=Loving on Borrowed Time
TTITLE8=Bullet in Your Breast
TTITLE9=Why Can't You Love Me
TTITLE10=Truest Love
TTITLE11=Where Did You Go?
TTITLE12=Hosanna
EXTD=
EXTT0=
EXTT1=
EXTT2=
EXTT3=
EXTT4=
EXTT5=
EXTT6=
EXTT7=
EXTT8=
EXTT9=
EXTT10=
EXTT11=
EXTT12=
PLAYORDER=
